<svg width="607" height="493" viewBox="0 0 607 493" fill="none" xmlns="http://www.w3.org/2000/svg">
<path d="M547.397 192.745L157.685 11.0187C145.422 5.30026 130.845 10.6059 125.126 22.8691L11.0194 267.572C5.30095 279.835 10.6066 294.412 22.8698 300.131L412.582 481.857C424.845 487.575 439.422 482.27 445.141 470.006L559.248 225.303C564.966 213.04 559.661 198.463 547.397 192.745Z" fill="#D7DBD3" stroke="#C1C9BE"/>
<path d="M574.631 95.0889L154.027 5.68685C140.792 2.87361 127.782 11.3223 124.969 24.5576L68.8325 288.657C66.0193 301.893 74.468 314.903 87.7033 317.716L508.307 407.118C521.542 409.931 534.552 401.482 537.365 388.247L593.501 124.147C596.315 110.912 587.866 97.9021 574.631 95.0889Z" fill="#E0E4DB" stroke="#C1C9BE"/>
<path d="M581.285 0.5H151.285C137.754 0.5 126.785 11.469 126.785 25V295C126.785 308.531 137.754 319.5 151.285 319.5H581.285C594.816 319.5 605.785 308.531 605.785 295V25C605.785 11.469 594.816 0.5 581.285 0.5Z" fill="white" stroke="#C1C9BE"/>
<path d="M248.598 130.375C248.598 129.167 248.806 128.25 249.223 127.625C251.098 124.875 253.723 121.979 257.098 118.938C257.723 118.438 258.264 118.188 258.723 118.188C259.223 118.188 259.743 118.438 260.285 118.938C262.118 120.521 263.66 122.042 264.91 123.5C266.16 124.917 267.243 126.292 268.16 127.625C268.577 128.292 268.785 129.208 268.785 130.375V206.688C268.785 207.938 268.514 208.812 267.973 209.312C267.473 209.771 266.598 210 265.348 210H252.035C250.785 210 249.889 209.771 249.348 209.312C248.848 208.812 248.598 207.938 248.598 206.688V173.5H211.473V206.688C211.473 207.938 211.202 208.812 210.66 209.312C210.16 209.771 209.285 210 208.035 210H194.723C193.473 210 192.577 209.771 192.035 209.312C191.535 208.812 191.285 207.938 191.285 206.688V123.688C191.285 122.438 191.535 121.583 192.035 121.125C192.577 120.625 193.473 120.375 194.723 120.375H208.035C209.285 120.375 210.16 120.625 210.66 121.125C211.202 121.583 211.473 122.438 211.473 123.688V156.125H248.598V130.375ZM337.035 125.312C339.327 128.521 341.66 132.667 344.035 137.75C346.452 142.792 348.785 148.333 351.035 154.375C353.285 160.417 355.306 166.604 357.098 172.938C358.931 179.229 360.431 185.292 361.598 191.125C362.764 196.958 363.431 202.146 363.598 206.688C363.639 208.896 362.639 210 360.598 210H345.473C343.514 210 342.493 209.021 342.41 207.062C342.243 202.396 341.493 196.729 340.16 190.062H306.035C304.868 196.562 304.202 202.229 304.035 207.062C303.952 209.021 302.889 210 300.848 210H286.035C285.285 210 284.66 209.792 284.16 209.375C283.66 208.917 283.431 208.146 283.473 207.062C283.681 202.438 284.348 197.188 285.473 191.312C286.639 185.396 288.139 179.271 289.973 172.938C291.806 166.604 293.848 160.417 296.098 154.375C298.348 148.292 300.681 142.729 303.098 137.688C305.514 132.646 307.868 128.521 310.16 125.312C311.368 123.604 312.639 122.354 313.973 121.562C315.348 120.771 317.035 120.375 319.035 120.375H328.035C330.077 120.375 331.785 120.771 333.16 121.562C334.535 122.354 335.827 123.604 337.035 125.312ZM322.91 140.125C320.16 144.5 317.639 149.729 315.348 155.812C313.056 161.896 311.077 168.146 309.41 174.562H336.535C334.785 168.146 332.764 161.896 330.473 155.812C328.181 149.729 325.785 144.5 323.285 140.125H322.91ZM393.723 210C389.431 210 386.16 209.458 383.91 208.375C381.702 207.292 380.202 205.521 379.41 203.062C378.66 200.604 378.285 197.333 378.285 193.25V137.125C378.285 132.958 378.66 129.667 379.41 127.25C380.202 124.792 381.702 123.042 383.91 122C386.16 120.917 389.431 120.375 393.723 120.375H412.91C421.868 120.375 429.702 121.708 436.41 124.375C443.16 127.042 448.41 131.562 452.16 137.938C455.91 144.271 457.785 152.979 457.785 164.062C457.785 175.146 455.91 184.062 452.16 190.812C448.41 197.521 443.16 202.396 436.41 205.438C429.702 208.479 421.868 210 412.91 210H393.723ZM405.598 136.812C402.848 136.812 400.973 137.396 399.973 138.562C398.973 139.729 398.473 141.729 398.473 144.562V185.812C398.473 188.604 398.973 190.604 399.973 191.812C400.973 193.021 402.848 193.625 405.598 193.625H408.473C417.389 193.625 424.285 191.438 429.16 187.062C434.077 182.688 436.535 175.104 436.535 164.312C436.535 157.104 435.41 151.521 433.16 147.562C430.952 143.562 427.743 140.771 423.535 139.188C419.327 137.604 414.264 136.812 408.348 136.812H405.598ZM521.035 125.312C523.327 128.521 525.66 132.667 528.035 137.75C530.452 142.792 532.785 148.333 535.035 154.375C537.285 160.417 539.306 166.604 541.098 172.938C542.931 179.229 544.431 185.292 545.598 191.125C546.764 196.958 547.431 202.146 547.598 206.688C547.639 208.896 546.639 210 544.598 210H529.473C527.514 210 526.493 209.021 526.41 207.062C526.243 202.396 525.493 196.729 524.16 190.062H490.035C488.868 196.562 488.202 202.229 488.035 207.062C487.952 209.021 486.889 210 484.848 210H470.035C469.285 210 468.66 209.792 468.16 209.375C467.66 208.917 467.431 208.146 467.473 207.062C467.681 202.438 468.348 197.188 469.473 191.312C470.639 185.396 472.139 179.271 473.973 172.938C475.806 166.604 477.848 160.417 480.098 154.375C482.348 148.292 484.681 142.729 487.098 137.688C489.514 132.646 491.868 128.521 494.16 125.312C495.368 123.604 496.639 122.354 497.973 121.562C499.348 120.771 501.035 120.375 503.035 120.375H512.035C514.077 120.375 515.785 120.771 517.16 121.562C518.535 122.354 519.827 123.604 521.035 125.312ZM506.91 140.125C504.16 144.5 501.639 149.729 499.348 155.812C497.056 161.896 495.077 168.146 493.41 174.562H520.535C518.785 168.146 516.764 161.896 514.473 155.812C512.181 149.729 509.785 144.5 507.285 140.125H506.91Z" fill="#3A4B3A"/>
</svg>
